<svg width="17" height="20" viewBox="0 0 17 20" fill="none" xmlns="http://www.w3.org/2000/svg">
    <path fill-rule="evenodd" clip-rule="evenodd"
          d="M3 1C3 0.723858 2.77614 0.5 2.5 0.5C2.22386 0.5 2 0.723858 2 1L2 3.92557C0.834849 4.16551 0 5.22807 0 6.4375C0 7.64693 0.834849 8.70949 2 8.94943L2 19C2 19.2761 2.22386 19.5 2.5 19.5C2.77614 19.5 3 19.2761 3 19L3 8.94943C4.16515 8.70949 5 7.64693 5 6.4375C5 5.22807 4.16515 4.16551 3 3.92557L3 1ZM1 6.4375C1 5.57455 1.67157 4.875 2.5 4.875C3.32843 4.875 4 5.57456 4 6.4375C4 7.30044 3.32843 8 2.5 8C1.67157 8 1 7.30044 1 6.4375ZM8.5 19.5C8.22386 19.5 8 19.2761 8 19V16.0744C6.83485 15.8345 6 14.7719 6 13.5625C6 12.3531 6.83485 11.2905 8 11.0506V1C8 0.723858 8.22386 0.5 8.5 0.5C8.77614 0.5 9 0.723858 9 1V11.0506C10.1652 11.2905 11 12.3531 11 13.5625C11 14.7719 10.1652 15.8345 9 16.0744V19C9 19.2761 8.77614 19.5 8.5 19.5ZM8.5 15.125C9.32843 15.125 10 14.4254 10 13.5625C10 12.6996 9.32843 12 8.5 12C7.67157 12 7 12.6996 7 13.5625C7 14.4254 7.67157 15.125 8.5 15.125ZM14.5 0.5C14.7761 0.5 15 0.723858 15 1L15 3.92557C16.1652 4.16551 17 5.22807 17 6.4375C17 7.64693 16.1652 8.70949 15 8.94943L15 19C15 19.2761 14.7761 19.5 14.5 19.5C14.2239 19.5 14 19.2761 14 19L14 8.94943C12.8348 8.70949 12 7.64693 12 6.4375C12 5.22807 12.8348 4.16551 14 3.92557L14 1C14 0.723858 14.2239 0.5 14.5 0.5ZM14.5 4.875C13.6716 4.875 13 5.57455 13 6.4375C13 7.30044 13.6716 8 14.5 8C15.3284 8 16 7.30044 16 6.4375C16 5.57456 15.3284 4.875 14.5 4.875Z"
          fill="#535456"/>
</svg>
