<svg width="22" height="20" viewBox="0 0 22 20" fill="none" xmlns="http://www.w3.org/2000/svg">
    <path opacity="0.5"
          d="M6.26642 6.17299L2.05758 6.2952C1.48103 6.31194 1.03814 6.81164 1.09077 7.38602L2.07167 18.0912C2.11884 18.606 2.55057 19 3.0675 19H18.6617C19.1787 19 19.6104 18.606 19.6576 18.0912L20.6356 7.41732C20.6893 6.83146 20.2281 6.32608 19.6398 6.32607L15.4692 6.32601M6.26642 6.17299C6.26642 6.17299 6.21946 1 10.8646 1C15.5098 1 15.4692 6.32601 15.4692 6.32601M6.26642 6.17299L15.4692 6.32601M7.1872 9.70968V15.6266M11.4453 9.70968V15.6266M15.3162 9.70968V15.6266"
          stroke="#1C1C1C" stroke-linecap="round" stroke-linejoin="round"/>
</svg>
