<svg width="22" height="18" viewBox="0 0 22 18" fill="none" xmlns="http://www.w3.org/2000/svg">
    <path opacity="0.5" fill-rule="evenodd" clip-rule="evenodd"
          d="M11.5288 0.393646C10.9555 -0.131212 10.0762 -0.131216 9.50296 0.393639L0.490118 8.64511C-0.519199 9.56917 0.134508 11.2514 1.50293 11.2515L2.29199 11.2515V16.5013C2.29199 17.3298 2.96356 18.0013 3.79199 18.0013H17.2398C18.0682 18.0013 18.7398 17.3298 18.7398 16.5013V11.2515L19.5287 11.2515C20.8971 11.2515 21.5509 9.56923 20.5416 8.64516L11.5288 0.393646ZM18.2225 10.2516L18.0625 10.2516L18.0625 10.2836C17.8739 10.3551 17.7398 10.5375 17.7398 10.7513V16.5013C17.7398 16.7775 17.5159 17.0013 17.2398 17.0013H3.79199C3.51584 17.0013 3.29199 16.7775 3.29199 16.5013V10.7513C3.29199 10.5375 3.15787 10.3551 2.96921 10.2836L2.96921 10.2516L2.80915 10.2516C2.80345 10.2514 2.79773 10.2513 2.79199 10.2513C2.78626 10.2513 2.78056 10.2514 2.77488 10.2515L1.50299 10.2515C1.04685 10.2514 0.828948 9.69071 1.16538 9.38269L10.1782 1.13121C10.3693 0.956262 10.6624 0.956262 10.8535 1.13122L19.8663 9.38273C20.2027 9.69076 19.9848 10.2515 19.5287 10.2515L18.2571 10.2516C18.2513 10.2514 18.2456 10.2513 18.2398 10.2513C18.234 10.2513 18.2282 10.2514 18.2225 10.2516Z"
          fill="#1C1C1C"/>
</svg>