<svg width="229" height="22" viewBox="0 0 229 22" fill="none" xmlns="http://www.w3.org/2000/svg">
    <path d="M0.925537 17V0.954025H4.18058L11.6993 10.8338V0.954025H15.1835V17H12.1806L4.40981 6.79934V17H0.925537Z"
          fill="#2A2B2A"/>
    <path d="M32.9267 14.8682C31.3068 16.4728 29.2743 17.2751 26.8292 17.2751C24.3841 17.2751 22.3516 16.4728 20.7317 14.8682C19.1271 13.2636 18.3248 11.2999 18.3248 8.97701C18.3248 6.66945 19.1348 4.71337 20.7547 3.10877C22.3898 1.48889 24.43 0.678955 26.875 0.678955C29.3201 0.678955 31.345 1.48125 32.9496 3.08585C34.5695 4.69044 35.3794 6.65416 35.3794 8.97701C35.3794 11.2846 34.5618 13.2483 32.9267 14.8682ZM23.3908 12.553C24.3077 13.531 25.4691 14.02 26.875 14.02C28.281 14.02 29.4348 13.5386 30.3364 12.5759C31.238 11.5978 31.6888 10.3982 31.6888 8.97701C31.6888 7.57108 31.2304 6.37909 30.3135 5.40105C29.3966 4.42301 28.2351 3.93399 26.8292 3.93399C25.4233 3.93399 24.2695 4.42301 23.3679 5.40105C22.4662 6.36381 22.0154 7.5558 22.0154 8.97701C22.0154 10.3829 22.4739 11.5749 23.3908 12.553Z"
          fill="#2A2B2A"/>
    <path d="M42.5929 17.1146L36.1058 0.954025H40.0027L44.1975 12.255L48.3924 0.954025H52.1976L45.7104 17.1146H42.5929Z"
          fill="#2A2B2A"/>
    <path d="M54.8337 17V0.954025H58.3638V17H54.8337Z" fill="#2A2B2A"/>
    <path d="M62.3739 17V0.954025H65.904V7.96841L72.4141 0.954025H76.6777L70.1447 7.7621L76.9757 17H72.735L67.7607 10.169L65.904 12.0945V17H62.3739Z"
          fill="#2A2B2A"/>
    <path d="M91.7559 14.8682C90.136 16.4728 88.1035 17.2751 85.6584 17.2751C83.2133 17.2751 81.1808 16.4728 79.561 14.8682C77.9564 13.2636 77.1541 11.2999 77.1541 8.97701C77.1541 6.66945 77.964 4.71337 79.5839 3.10877C81.219 1.48889 83.2592 0.678955 85.7043 0.678955C88.1494 0.678955 90.1742 1.48125 91.7788 3.08585C93.3987 4.69044 94.2086 6.65416 94.2086 8.97701C94.2086 11.2846 93.3911 13.2483 91.7559 14.8682ZM82.22 12.553C83.1369 13.531 84.2983 14.02 85.7043 14.02C87.1102 14.02 88.264 13.5386 89.1656 12.5759C90.0673 11.5978 90.5181 10.3982 90.5181 8.97701C90.5181 7.57108 90.0596 6.37909 89.1427 5.40105C88.2258 4.42301 87.0644 3.93399 85.6584 3.93399C84.2525 3.93399 83.0987 4.42301 82.1971 5.40105C81.2955 6.36381 80.8446 7.5558 80.8446 8.97701C80.8446 10.3829 81.3031 11.5749 82.22 12.553Z"
          fill="#2A2B2A"/>
    <path d="M101.422 17.1146L94.935 0.954025H98.8319L103.027 12.255L107.222 0.954025H111.027L104.54 17.1146H101.422Z"
          fill="#2A2B2A"/>
    <path d="M124.111 17V4.20906H119.229V0.954025H132.524V4.20906H127.641V17H124.111Z" fill="#2A2B2A"/>
    <path d="M140.351 17.1146L133.863 0.954025H137.76L141.955 12.255L146.15 0.954025H149.955L143.468 17.1146H140.351Z"
          fill="#2A2B2A"/>
    <path d="M159.157 21.9472V1.47561H160.613V21.9472H159.157Z" fill="#2A2B2A"/>
    <path d="M184.688 1.47561L183.569 6.2997H183.132C183.08 4.98641 182.756 4.00891 182.159 3.36719C181.569 2.71801 180.797 2.39342 179.842 2.39342C178.812 2.39342 177.786 2.83367 176.764 3.71416C175.741 4.59466 174.876 5.94153 174.167 7.75476C173.592 9.22474 173.305 10.6761 173.305 12.1087C173.305 13.3922 173.618 14.3734 174.245 15.0524C174.88 15.724 175.745 16.0598 176.842 16.0598C177.73 16.0598 178.54 15.8658 179.271 15.4778C180.002 15.0898 180.741 14.4592 181.487 13.5862H182.024C181.099 14.9741 180.163 15.9479 179.215 16.5075C178.275 17.0671 177.122 17.347 175.756 17.347C173.928 17.347 172.454 16.7948 171.335 15.6904C170.223 14.5786 169.667 13.131 169.667 11.3476C169.667 9.67618 170.111 8.08308 170.999 6.56833C171.887 5.04611 173.163 3.81863 174.827 2.8859C176.499 1.94571 178.159 1.47561 179.808 1.47561C180.435 1.47561 181.215 1.60992 182.147 1.87855C182.625 2.01286 182.957 2.08002 183.144 2.08002C183.517 2.08002 183.893 1.87855 184.274 1.47561H184.688Z"
          fill="#2A2B2A"/>
    <path d="M194.84 17H182.718L182.841 16.5859C183.565 16.5859 184.091 16.4478 184.42 16.1717C184.755 15.8882 185.065 15.2577 185.349 14.2801L188.169 4.53124C188.326 3.99399 188.404 3.57239 188.404 3.26646C188.404 2.96798 188.292 2.7292 188.068 2.55012C187.845 2.37103 187.404 2.26657 186.748 2.23672L186.871 1.82259H194.157L194.034 2.23672C193.333 2.25164 192.807 2.40834 192.456 2.70682C192.113 3.00529 191.807 3.61343 191.538 4.53124L188.964 13.4519C188.635 14.5861 188.471 15.2763 188.471 15.5225C188.471 15.6718 188.553 15.8136 188.718 15.9479C188.889 16.0747 189.162 16.1381 189.535 16.1381C190.773 16.1381 191.967 15.8546 193.116 15.2875C194.273 14.7204 195.25 13.8735 196.049 12.7467H196.519L194.84 17Z"
          fill="#2A2B2A"/>
    <path d="M210.868 1.82259H216.006L215.905 2.23672C215.315 2.28149 214.86 2.42327 214.539 2.66204C214.024 3.0426 213.64 3.66939 213.386 4.54243L211.372 11.5043C210.745 13.6757 209.894 15.1942 208.82 16.0598C207.745 16.9179 206.38 17.347 204.723 17.347C203.783 17.347 202.955 17.2127 202.238 16.944C201.522 16.6754 200.996 16.3732 200.66 16.0374C200.324 15.7016 200.067 15.2875 199.888 14.795C199.709 14.2951 199.619 13.8772 199.619 13.5414C199.619 13.0116 199.769 12.2281 200.067 11.1909L201.992 4.54243C202.164 3.94548 202.25 3.5015 202.25 3.21049C202.25 2.92694 202.141 2.70682 201.925 2.55012C201.716 2.39342 201.224 2.28895 200.448 2.23672L200.571 1.82259H208.137L208.003 2.23672C207.271 2.23672 206.712 2.39342 206.324 2.70682C205.943 3.02022 205.622 3.63209 205.361 4.54243L203.425 11.1909C203.104 12.3028 202.944 13.1944 202.944 13.866C202.944 14.4779 203.19 15.0114 203.682 15.4666C204.175 15.9218 204.861 16.1493 205.742 16.1493C206.548 16.1493 207.23 16.0038 207.79 15.7128C208.357 15.4143 208.827 15.0002 209.2 14.4704C209.693 13.7615 210.133 12.7467 210.521 11.426L212.502 4.54243C212.614 4.14695 212.67 3.81863 212.67 3.55747C212.67 3.09483 212.506 2.74039 212.178 2.49415C211.946 2.32253 211.469 2.23672 210.745 2.23672L210.868 1.82259Z"
          fill="#2A2B2A"/>
    <path d="M217.584 1.82259H223.583C224.919 1.82259 225.874 1.89347 226.448 2.03525C227.202 2.21433 227.784 2.56504 228.194 3.08737C228.612 3.60224 228.821 4.18799 228.821 4.84464C228.821 5.38189 228.657 5.93034 228.329 6.48997C228 7.04961 227.508 7.51225 226.851 7.87788C226.202 8.23605 225.202 8.5681 223.852 8.87403C225.255 9.26951 226.228 9.77692 226.773 10.3963C227.318 11.0156 227.59 11.7357 227.59 12.5565C227.59 13.325 227.321 14.0861 226.784 14.8398C226.247 15.586 225.534 16.1344 224.646 16.4851C223.758 16.8284 222.132 17 219.766 17H213.454L213.599 16.5859C214.211 16.5859 214.647 16.5299 214.909 16.418C215.177 16.306 215.39 16.1344 215.547 15.9031C215.711 15.6643 215.901 15.1718 216.117 14.4257L218.826 5.09088C219.102 4.14322 219.24 3.50897 219.24 3.18811C219.24 2.92694 219.128 2.71055 218.904 2.53893C218.688 2.3673 218.211 2.26657 217.472 2.23672L217.584 1.82259ZM221.02 8.52706C222.035 8.51213 222.833 8.3517 223.415 8.04577C224.005 7.73983 224.475 7.23989 224.825 6.54594C225.184 5.84452 225.363 5.18415 225.363 4.56482C225.363 3.98279 225.18 3.50896 224.814 3.14333C224.449 2.7777 223.96 2.60235 223.348 2.61728L222.732 2.63966L221.02 8.52706ZM220.751 9.36652L218.815 16.1158C219.188 16.1307 219.468 16.1381 219.654 16.1381C221.318 16.1381 222.475 15.6755 223.124 14.7502C223.773 13.8175 224.098 12.8214 224.098 11.7618C224.098 11.2544 223.971 10.8067 223.717 10.4186C223.471 10.0232 223.15 9.7508 222.755 9.60157C222.359 9.44487 221.691 9.36652 220.751 9.36652Z"
          fill="#2A2B2A"/>
</svg>