<svg width="20" height="22" viewBox="0 0 20 22" fill="none" xmlns="http://www.w3.org/2000/svg">
    <path fill-rule="evenodd" clip-rule="evenodd"
          d="M5.99647 0.00790334C6.26829 -0.0407389 6.52808 0.140186 6.57673 0.41201C6.62537 0.683835 6.44444 0.943625 6.17262 0.992267C4.5613 1.28061 1.17008 3.05146 0.999698 7.90726C0.990015 8.18323 0.758445 8.3991 0.482473 8.38942C0.2065 8.37974 -0.00937015 8.14817 0.000313463 7.87219C0.190955 2.43891 4.03519 0.358869 5.99647 0.00790334ZM13.3205 0.41201C13.3691 0.140186 13.6289 -0.0407389 13.9007 0.00790334C15.862 0.358869 19.7063 2.43891 19.8969 7.87219C19.9066 8.14817 19.6907 8.37974 19.4147 8.38942C19.1388 8.3991 18.9072 8.18323 18.8975 7.90726C18.7271 3.05146 15.3359 1.28061 13.7246 0.992267C13.4528 0.943625 13.2718 0.683835 13.3205 0.41201ZM11.759 1.08925C11.444 0.601038 10.8993 0.225761 10.0894 0.225761C9.27961 0.225761 8.73498 0.601068 8.42005 1.08936C8.22322 1.39454 8.12166 1.73307 8.0829 2.03395C5.98176 2.69338 2.43725 5.0388 2.48238 10.0942C2.50393 12.5073 2.11392 14.1784 1.63344 15.2829C1.46294 15.6748 1.32009 16.0549 1.2335 16.4056C1.14848 16.7498 1.1064 17.1089 1.17938 17.4398C1.25813 17.7967 1.46681 18.0965 1.81728 18.2819C2.14193 18.4537 2.54821 18.5064 3.00408 18.4866C5.06104 18.3972 8.53561 18.4493 10.0209 18.4869C10.0442 18.4875 10.0672 18.4865 10.0897 18.484C10.1122 18.4865 10.1352 18.4875 10.1585 18.4869C11.6438 18.4493 15.1184 18.3972 17.1753 18.4866C17.6312 18.5064 18.0375 18.4537 18.3621 18.2819C18.7126 18.0965 18.9213 17.7967 19 17.4398C19.073 17.1089 19.0309 16.7498 18.9459 16.4056C18.8593 16.0549 18.7165 15.6748 18.546 15.2829C18.0655 14.1784 17.6755 12.5073 17.697 10.0942C17.7422 5.03876 14.1976 2.69335 12.0965 2.03394C12.0577 1.73299 11.956 1.39443 11.759 1.08925ZM10.0462 17.4872C10.0609 17.4876 10.0754 17.4886 10.0897 17.4902C10.104 17.4886 10.1185 17.4876 10.1332 17.4872C11.6188 17.4496 15.124 17.3965 17.2188 17.4875C17.5914 17.5037 17.7934 17.4515 17.8944 17.398C17.9697 17.3582 18.0041 17.3125 18.0235 17.2243C18.0487 17.1101 18.044 16.9246 17.9751 16.6453C17.9077 16.3725 17.7893 16.0503 17.629 15.6818C17.0812 14.4226 16.6746 12.6071 16.6971 10.0853C16.7394 5.34053 13.2339 3.32137 11.4958 2.90424C11.2589 2.84737 11.0974 2.62794 11.1136 2.38479C11.1267 2.18917 11.0776 1.87758 10.9188 1.63148C10.7788 1.41458 10.5432 1.22576 10.0894 1.22576C9.63571 1.22576 9.40026 1.41455 9.26042 1.63137C9.10172 1.87742 9.05275 2.18903 9.0658 2.38479C9.082 2.62794 8.92056 2.84737 8.68359 2.90424C6.94554 3.32137 3.43998 5.34053 3.48234 10.0853C3.50486 12.6071 3.09822 14.4226 2.55043 15.6818C2.39011 16.0503 2.27172 16.3725 2.20433 16.6453C2.13537 16.9246 2.1307 17.1101 2.15591 17.2243C2.17534 17.3125 2.20976 17.3582 2.28497 17.398C2.38601 17.4515 2.588 17.5037 2.96065 17.4875C5.05542 17.3965 8.5606 17.4496 10.0462 17.4872ZM8.00243 18.6715C7.83191 18.6715 7.67316 18.7584 7.58126 18.9021C7.48936 19.0457 7.47699 19.2263 7.54845 19.3811C7.6683 19.6408 7.888 20.0819 8.29607 20.4565C8.71673 20.8427 9.31544 21.1382 10.146 21.1382C10.9698 21.1382 11.5984 20.8474 12.0241 20.4565C12.4293 20.0845 12.6767 19.5929 12.6767 19.1715C12.6767 18.8954 12.4529 18.6715 12.1767 18.6715H8.00243ZM8.97236 19.7199C8.95507 19.704 8.93825 19.6879 8.92189 19.6715H11.3979C11.3821 19.6876 11.3654 19.7038 11.3478 19.7199C11.1079 19.9401 10.7211 20.1382 10.146 20.1382C9.57758 20.1382 9.21732 19.9448 8.97236 19.7199Z"
          fill="#535456"/>
</svg>
