<svg width="19" height="18" viewBox="0 0 19 18" fill="none" xmlns="http://www.w3.org/2000/svg">
    <path opacity="0.5" fill-rule="evenodd" clip-rule="evenodd"
          d="M13.536 4.58392C13.536 6.55902 11.9264 8.16785 9.93131 8.16785C7.93626 8.16785 6.32666 6.55902 6.32666 4.58392C6.32666 2.60883 7.93626 1 9.93131 1C11.9264 1 13.536 2.60883 13.536 4.58392ZM14.536 4.58392C14.536 7.11555 12.4744 9.16785 9.93131 9.16785C7.38823 9.16785 5.32666 7.11555 5.32666 4.58392C5.32666 2.05229 7.38823 0 9.93131 0C12.4744 0 14.536 2.05229 14.536 4.58392ZM9.51271 10.7515C3.64389 10.7515 0.989272 13.8566 0.117493 16.2246C-0.23887 17.1926 0.575956 18.0023 1.44628 18.0023H17.5791C18.4495 18.0023 19.2643 17.1926 18.9079 16.2246C18.0362 13.8566 15.3815 10.7515 9.51271 10.7515ZM1.05592 16.5701C1.78833 14.5806 4.07837 11.7515 9.51271 11.7515C14.9471 11.7515 17.2371 14.5806 17.9695 16.5701C18.0091 16.6777 17.9878 16.7709 17.9249 16.849C17.8565 16.9338 17.7338 17.0023 17.5791 17.0023H1.44628C1.29162 17.0023 1.16891 16.9338 1.10056 16.849C1.03765 16.7709 1.01629 16.6777 1.05592 16.5701Z"
          fill="#1C1C1C"/>
</svg>
