<svg width="15" height="16" viewBox="0 0 15 16" fill="none" xmlns="http://www.w3.org/2000/svg">
    <path fill-rule="evenodd" clip-rule="evenodd"
          d="M13.4762 2.66667C13.4762 3.58714 12.73 4.33333 11.8095 4.33333C10.889 4.33333 10.1429 3.58714 10.1429 2.66667C10.1429 1.74619 10.889 1 11.8095 1C12.73 1 13.4762 1.74619 13.4762 2.66667ZM14.4762 2.66667C14.4762 4.13943 13.2823 5.33333 11.8095 5.33333C10.9873 5.33333 10.2519 4.96118 9.76277 4.37612L5.17835 7.10199C5.27869 7.38259 5.33333 7.68491 5.33333 8C5.33333 8.3542 5.26428 8.69226 5.1389 9.00147L9.69386 11.7098C10.1813 11.0755 10.9477 10.6667 11.8095 10.6667C13.2823 10.6667 14.4762 11.8606 14.4762 13.3333C14.4762 14.8061 13.2823 16 11.8095 16C10.3368 16 9.14286 14.8061 9.14286 13.3333C9.14286 13.081 9.17791 12.8368 9.24342 12.6054L4.59526 9.84165C4.10969 10.35 3.42516 10.6667 2.66667 10.6667C1.19391 10.6667 0 9.47276 0 8C0 6.52724 1.19391 5.33333 2.66667 5.33333C3.46524 5.33333 4.18182 5.68435 4.67054 6.24051L9.2683 3.50671L9.29064 3.54427C9.19489 3.26944 9.14286 2.97413 9.14286 2.66667C9.14286 1.19391 10.3368 0 11.8095 0C13.2823 0 14.4762 1.19391 14.4762 2.66667ZM4.33333 8C4.33333 8.92048 3.58714 9.66667 2.66667 9.66667C1.74619 9.66667 1 8.92048 1 8C1 7.07953 1.74619 6.33333 2.66667 6.33333C3.58714 6.33333 4.33333 7.07953 4.33333 8ZM11.8095 15C12.73 15 13.4762 14.2538 13.4762 13.3333C13.4762 12.4129 12.73 11.6667 11.8095 11.6667C10.889 11.6667 10.1429 12.4129 10.1429 13.3333C10.1429 14.2538 10.889 15 11.8095 15Z"
          fill="#2A2B2A" fill-opacity="0.85"/>
</svg>