<svg width="9" height="11" viewBox="0 0 9 11" fill="none" xmlns="http://www.w3.org/2000/svg">
    <path opacity="0.75" fill-rule="evenodd" clip-rule="evenodd"
          d="M2.25 1.25C2.25 0.835786 2.58579 0.5 3 0.5H7C7.41421 0.5 7.75 0.835787 7.75 1.25V7.25C7.75 7.66421 7.41421 8 7 8H6.2C6.11822 8 6.04561 8.03927 6 8.09998V3.25C6 2.69772 5.55228 2.25 5 2.25H1C0.447715 2.25 0 2.69772 0 3.25V9.25C0 9.80228 0.447715 10.25 1 10.25H5C5.55228 10.25 6 9.80228 6 9.25V8.40002C6.04561 8.46073 6.11822 8.5 6.2 8.5H7C7.69036 8.5 8.25 7.94036 8.25 7.25V1.25C8.25 0.559644 7.69036 0 7 0H3C2.30964 0 1.75 0.559644 1.75 1.25V1.66176C1.75 1.79984 1.86193 1.91176 2 1.91176C2.13807 1.91176 2.25 1.79984 2.25 1.66176V1.25ZM0.5 3.25C0.5 2.97386 0.723858 2.75 1 2.75H5C5.27614 2.75 5.5 2.97386 5.5 3.25V9.25C5.5 9.52614 5.27614 9.75 5 9.75H1C0.723858 9.75 0.5 9.52614 0.5 9.25V3.25Z"
          fill="#2A2B2A"/>
</svg>