<svg width="14" height="13" viewBox="0 0 14 13" fill="none" xmlns="http://www.w3.org/2000/svg">
    <path d="M6.78035 2.22832L7 2.48953L7.2196 2.22832C7.85213 1.47611 8.82293 1 9.8298 1C11.6073 1 13 2.41042 13 4.21062C13 5.31834 12.5107 6.34628 11.5913 7.48465C10.6686 8.62713 9.34313 9.84488 7.71804 11.3373L6.99925 12L6.2822 11.3439L6.28156 11.3433L6.27274 11.3352C4.65187 9.84347 3.32971 8.62667 2.40873 7.48553C1.4893 6.3463 1 5.31834 1 4.21062C1 2.41042 2.39265 1 4.17018 1C5.17702 1 6.14788 1.47611 6.78035 2.22832Z"
          fill="white"/>
    <path d="M6.78035 2.22832L6.39765 2.5501L6.39767 2.55011L6.78035 2.22832ZM7 2.48953L6.61732 2.81133L7.00005 3.26648L7.38273 2.81128L7 2.48953ZM7.2196 2.22832L6.83691 1.90652L6.83687 1.90657L7.2196 2.22832ZM11.5913 7.48465L11.2023 7.1705L11.2023 7.1705L11.5913 7.48465ZM7.71804 11.3373L7.37984 10.969L7.37912 10.9697L7.71804 11.3373ZM6.99925 12L6.66173 12.3689C6.85333 12.5442 7.14724 12.5436 7.33817 12.3676L6.99925 12ZM6.2822 11.3439L5.94356 11.7118L5.94468 11.7128L6.2822 11.3439ZM6.28156 11.3433L6.6202 10.9755L6.62012 10.9754L6.28156 11.3433ZM6.27274 11.3352L5.93414 11.7031L5.93418 11.7031L6.27274 11.3352ZM2.40873 7.48553L2.79782 7.17151L2.79782 7.17151L2.40873 7.48553ZM6.39767 2.55011L6.61732 2.81133L7.38269 2.16773L7.16304 1.90652L6.39767 2.55011ZM7.38273 2.81128L7.60232 2.55006L6.83687 1.90657L6.61728 2.16778L7.38273 2.81128ZM7.60228 2.55011C8.14383 1.9061 8.97669 1.5 9.8298 1.5V0.5C8.66918 0.5 7.56042 1.04612 6.83691 1.90652L7.60228 2.55011ZM9.8298 1.5C11.3252 1.5 12.5 2.68058 12.5 4.21062H13.5C13.5 2.14027 11.8894 0.5 9.8298 0.5V1.5ZM12.5 4.21062C12.5 5.15619 12.0871 6.07493 11.2023 7.1705L11.9803 7.79881C12.9342 6.61763 13.5 5.48048 13.5 4.21062H12.5ZM11.2023 7.1705C10.3082 8.27755 9.01493 9.46742 7.37984 10.969L8.05624 11.7056C9.67132 10.2223 11.029 8.97672 11.9803 7.79881L11.2023 7.1705ZM7.37912 10.9697L6.66034 11.6324L7.33817 12.3676L8.05696 11.7049L7.37912 10.9697ZM7.33678 11.6311L6.61972 10.975L5.94468 11.7128L6.66173 12.3689L7.33678 11.6311ZM6.62083 10.976L6.6202 10.9755L5.94293 11.7112L5.94356 11.7118L6.62083 10.976ZM6.62012 10.9754L6.61129 10.9673L5.93418 11.7031L5.94301 11.7113L6.62012 10.9754ZM6.61133 10.9673C4.98044 9.46634 3.69032 8.27736 2.79782 7.17151L2.01965 7.79955C2.9691 8.97598 4.3233 10.2206 5.93414 11.7031L6.61133 10.9673ZM2.79782 7.17151C1.91285 6.07499 1.5 5.15621 1.5 4.21062H0.5C0.5 5.48047 1.06574 6.61761 2.01965 7.79955L2.79782 7.17151ZM1.5 4.21062C1.5 2.68057 2.67475 1.5 4.17018 1.5V0.5C2.11055 0.5 0.5 2.14028 0.5 4.21062H1.5ZM4.17018 1.5C5.02327 1.5 5.85617 1.90611 6.39765 2.5501L7.16305 1.90654C6.43959 1.04612 5.33076 0.5 4.17018 0.5V1.5Z"
          fill="#8DBDFB"/>
</svg>