<svg width="20" height="18" viewBox="0 0 20 18" fill="none" xmlns="http://www.w3.org/2000/svg">
    <path d="M9.67053 2.78664L9.29276 3.1142L9.29278 3.11422L9.67053 2.78664ZM10 3.16659L9.62225 3.49416L10.0001 3.92983L10.3778 3.49411L10 3.16659ZM10.3294 2.78664L9.95165 2.45907L9.9516 2.45912L10.3294 2.78664ZM16.8869 10.4322L16.5027 10.1122L16.5027 10.1122L16.8869 10.4322ZM11.0771 16.0361L10.7445 15.6627L10.7438 15.6633L11.0771 16.0361ZM9.99888 17L9.66704 17.374C9.85692 17.5425 10.1429 17.5419 10.3321 17.3728L9.99888 17ZM8.9233 16.0457L8.59033 16.4187L8.59146 16.4197L8.9233 16.0457ZM8.92235 16.0448L9.25531 15.6718L9.25523 15.6718L8.92235 16.0448ZM8.9091 16.033L8.57618 16.4061L8.57622 16.4061L8.9091 16.033ZM3.1131 10.4335L3.49741 10.1136H3.49741L3.1131 10.4335ZM9.29278 3.11422L9.62225 3.49416L10.3778 2.83902L10.0483 2.45907L9.29278 3.11422ZM10.3778 3.49411L10.7072 3.11417L9.9516 2.45912L9.62221 2.83906L10.3778 3.49411ZM10.7071 3.11422C11.563 2.12728 12.8824 1.5 14.2447 1.5V0.5C12.5864 0.5 10.9934 1.25777 9.95165 2.45907L10.7071 3.11422ZM14.2447 1.5C16.6434 1.5 18.5 3.33616 18.5 5.67H19.5C19.5 2.76689 17.1785 0.5 14.2447 0.5V1.5ZM18.5 5.67C18.5 7.11403 17.8471 8.49807 16.5027 10.1122L17.2711 10.7522C18.6849 9.05475 19.5 7.4484 19.5 5.67H18.5ZM16.5027 10.1122C15.1479 11.739 13.1924 13.4827 10.7445 15.6627L11.4096 16.4095C13.837 14.2478 15.8579 12.4491 17.2711 10.7522L16.5027 10.1122ZM10.7438 15.6633L9.66563 16.6272L10.3321 17.3728L11.4103 16.4088L10.7438 15.6633ZM10.3307 16.626L9.25514 15.6717L8.59146 16.4197L9.66704 17.374L10.3307 16.626ZM9.25626 15.6727L9.25531 15.6718L8.58938 16.4179L8.59033 16.4187L9.25626 15.6727ZM9.25523 15.6718L9.24199 15.6599L8.57622 16.4061L8.58946 16.4179L9.25523 15.6718ZM9.24203 15.66C6.80047 13.481 4.8498 11.7385 3.49741 10.1136L2.72879 10.7534C4.13933 12.4481 6.15515 14.2454 8.57618 16.4061L9.24203 15.66ZM3.49741 10.1136C2.15284 8.49814 1.5 7.11406 1.5 5.67H0.5C0.5 7.44839 1.31505 9.05474 2.72879 10.7534L3.49741 10.1136ZM1.5 5.67C1.5 3.33616 3.35655 1.5 5.75526 1.5V0.5C2.8214 0.5 0.5 2.76689 0.5 5.67H1.5ZM5.75526 1.5C7.11751 1.5 8.43701 2.12729 9.29276 3.1142L10.0483 2.45909C9.00663 1.25776 7.41354 0.5 5.75526 0.5V1.5Z"
          fill="#2A2B2A" fill-opacity="0.85"/>
</svg>