<svg width="18" height="18" viewBox="0 0 18 18" fill="none" xmlns="http://www.w3.org/2000/svg">
    <g opacity="0.5">
        <circle opacity="0.93" cx="9" cy="9" r="8.5" stroke="#1C1C1C"/>
        <path opacity="0.93"
              d="M8.28 11.132L8.1 9.188L8.16 9.128C8.928 9.112 9.516 8.952 9.924 8.648C10.34 8.344 10.548 7.932 10.548 7.412C10.548 6.972 10.388 6.604 10.068 6.308C9.748 6.004 9.324 5.852 8.796 5.852C7.988 5.852 7.26 6.228 6.612 6.98L6 6.392C6.768 5.464 7.708 5 8.82 5C9.62 5 10.268 5.224 10.764 5.672C11.26 6.12 11.508 6.696 11.508 7.4C11.508 8.112 11.276 8.672 10.812 9.08C10.348 9.48 9.748 9.732 9.012 9.836L8.892 11.132H8.28ZM8.028 13.508V12.248H9.132V13.508H8.028Z"
              fill="#1C1C1C"/>
    </g>
</svg>