<svg width="46" height="45" viewBox="0 0 46 45" fill="none" xmlns="http://www.w3.org/2000/svg">
    <path d="M7.84595 18.1688L12.0236 22.222L7.84682 25.6282" stroke="#003650" stroke-width="2.8" stroke-linecap="round"
          stroke-linejoin="round"/>
    <path d="M37.7397 26.0249L33.7506 22.0352L37.929 18.6288" stroke="#003650" stroke-width="2.8" stroke-linecap="round"
          stroke-linejoin="round"/>
    <path d="M33.768 22.1285H43.025" stroke="#003650" stroke-width="2.8" stroke-linecap="round"
          stroke-linejoin="round"/>
    <path d="M2.75037 22.1285H12.0074" stroke="#003650" stroke-width="2.8" stroke-linecap="round"
          stroke-linejoin="round"/>
    <path d="M22.75 13.9004C24.1007 13.9004 25.4667 14.6802 26.5527 16.2314C27.6357 17.7785 28.3496 19.9906 28.3496 22.5C28.3496 25.0094 27.6357 27.2215 26.5527 28.7686C25.4667 30.3198 24.1007 31.0996 22.75 31.0996C21.3993 31.0996 20.0333 30.3198 18.9473 28.7686C17.8643 27.2215 17.1504 25.0094 17.1504 22.5C17.1504 19.9906 17.8643 17.7785 18.9473 16.2314C20.0333 14.6802 21.3993 13.9004 22.75 13.9004Z"
          stroke="#003650" stroke-width="2.8"/>
</svg>