<svg width="48" height="48" viewBox="0 0 52 51" fill="none" xmlns="http://www.w3.org/2000/svg">
    <path d="M26.375 8.49986H13.625C11.2778 8.49986 9.375 10.4026 9.375 12.7499V38.2499C9.375 40.597 11.2778 42.4999 13.625 42.4999H39.125C41.4723 42.4999 43.375 40.597 43.375 38.2499V25.4999M40.0052 17.88L42.3125 15.5728C43.9721 13.9131 43.9721 11.2221 42.3125 9.56242C40.6527 7.90269 37.9618 7.90269 36.3019 9.56244L33.9948 11.8696M40.0052 17.88L27.178 30.7072C26.5847 31.3005 25.8291 31.7051 25.0065 31.8696L18.7552 33.1197L20.0055 26.8686C20.17 26.0458 20.5744 25.2902 21.1677 24.6969L33.9948 11.8696M40.0052 17.88L33.9948 11.8696"
          stroke="#003650" stroke-width="3.75" stroke-linecap="round" stroke-linejoin="round"/>
</svg>
