<svg width="32" height="32" viewBox="0 0 32 32" fill="none" xmlns="http://www.w3.org/2000/svg">
    <path d="M5.33398 18.0001V5.33341C5.33398 4.62617 5.61494 3.94789 6.11503 3.4478C6.61513 2.9477 7.29341 2.66675 8.00065 2.66675H19.334L26.6673 10.0001V26.6667C26.6673 27.374 26.3864 28.0523 25.8863 28.5524C25.3862 29.0525 24.7079 29.3334 24.0007 29.3334H16.6673"
          stroke="#003650" stroke-width="2.66667" stroke-linecap="round" stroke-linejoin="round"/>
    <path d="M18.666 2.66675V10.6667H26.666" stroke="#003650" stroke-width="2.66667" stroke-linecap="round"
          stroke-linejoin="round"/>
    <path d="M13.894 16.8133C14.154 16.5533 14.4627 16.347 14.8024 16.2063C15.1421 16.0656 15.5063 15.9932 15.874 15.9932C16.2417 15.9932 16.6058 16.0656 16.9456 16.2063C17.2853 16.347 17.594 16.5533 17.854 16.8133C18.114 17.0733 18.3203 17.382 18.461 17.7217C18.6017 18.0615 18.6741 18.4256 18.6741 18.7933C18.6741 19.161 18.6017 19.5251 18.461 19.8649C18.3203 20.2046 18.114 20.5133 17.854 20.7733L10.6007 28L5.33398 29.3333L6.65398 24.0666L13.894 16.8133Z"
          stroke="#003650" stroke-width="2.66667" stroke-linecap="round" stroke-linejoin="round"/>
</svg>