<svg width="46" height="45" viewBox="0 0 46 45" fill="none" xmlns="http://www.w3.org/2000/svg">
    <path d="M30.5 39.375V35.625C30.5 33.6359 29.7098 31.7282 28.3033 30.3217C26.8968 28.9152 24.9891 28.125 23 28.125H11.75C9.76088 28.125 7.85322 28.9152 6.4467 30.3217C5.04018 31.7282 4.25 33.6359 4.25 35.625V39.375"
          stroke="#003650" stroke-width="3.75" stroke-linecap="round" stroke-linejoin="round"/>
    <path d="M17.375 20.625C21.5171 20.625 24.875 17.2671 24.875 13.125C24.875 8.98286 21.5171 5.625 17.375 5.625C13.2329 5.625 9.875 8.98286 9.875 13.125C9.875 17.2671 13.2329 20.625 17.375 20.625Z"
          stroke="#003650" stroke-width="3.75" stroke-linecap="round" stroke-linejoin="round"/>
    <path d="M41.75 39.375V35.625C41.7488 33.9633 41.1957 32.349 40.1776 31.0356C39.1595 29.7223 37.734 28.7842 36.125 28.3688"
          stroke="#003650" stroke-width="3.75" stroke-linecap="round" stroke-linejoin="round"/>
    <path d="M30.5 5.86877C32.1133 6.28184 33.5432 7.22009 34.5643 8.53561C35.5855 9.85112 36.1397 11.4691 36.1397 13.1344C36.1397 14.7997 35.5855 16.4177 34.5643 17.7332C33.5432 19.0487 32.1133 19.987 30.5 20.4"
          stroke="#003650" stroke-width="3.75" stroke-linecap="round" stroke-linejoin="round"/>
</svg>