<svg width="46" height="45" viewBox="0 0 46 45" fill="none" xmlns="http://www.w3.org/2000/svg">
    <path d="M23.0373 3.75012H22.2123C21.2177 3.75012 20.2639 4.14521 19.5606 4.84847C18.8573 5.55173 18.4623 6.50556 18.4623 7.50012V7.83762C18.4616 8.49523 18.288 9.1411 17.9589 9.71044C17.6298 10.2798 17.1568 10.7526 16.5873 11.0814L15.781 11.5501C15.2109 11.8793 14.5643 12.0525 13.906 12.0525C13.2477 12.0525 12.6011 11.8793 12.031 11.5501L11.7498 11.4001C10.8893 10.9037 9.86695 10.7691 8.90726 11.0257C7.94757 11.2823 7.12892 11.9093 6.63101 12.7689L6.21851 13.4814C5.72213 14.3419 5.58747 15.3642 5.84409 16.3239C6.10071 17.2836 6.72764 18.1022 7.58726 18.6001L7.86851 18.7876C8.43528 19.1148 8.90655 19.5847 9.23548 20.1504C9.56441 20.7162 9.73956 21.3582 9.74351 22.0126V22.9689C9.74613 23.6297 9.5741 24.2794 9.24484 24.8523C8.91558 25.4252 8.44078 25.901 7.86851 26.2314L7.58726 26.4001C6.72764 26.898 6.10071 27.7167 5.84409 28.6764C5.58747 29.6361 5.72213 30.6584 6.21851 31.5189L6.63101 32.2314C7.12892 33.091 7.94757 33.7179 8.90726 33.9745C9.86695 34.2312 10.8893 34.0965 11.7498 33.6001L12.031 33.4501C12.6011 33.121 13.2477 32.9477 13.906 32.9477C14.5643 32.9477 15.2109 33.121 15.781 33.4501L16.5873 33.9189C17.1568 34.2477 17.6298 34.7205 17.9589 35.2898C18.288 35.8591 18.4616 36.505 18.4623 37.1626V37.5001C18.4623 38.4947 18.8573 39.4485 19.5606 40.1518C20.2639 40.855 21.2177 41.2501 22.2123 41.2501H23.0373C24.0318 41.2501 24.9856 40.855 25.6889 40.1518C26.3922 39.4485 26.7873 38.4947 26.7873 37.5001V37.1626C26.7879 36.505 26.9615 35.8591 27.2906 35.2898C27.6197 34.7205 28.0928 34.2477 28.6623 33.9189L29.4685 33.4501C30.0386 33.121 30.6852 32.9477 31.3435 32.9477C32.0018 32.9477 32.6484 33.121 33.2185 33.4501L33.4998 33.6001C34.3603 34.0965 35.3826 34.2312 36.3423 33.9745C37.3019 33.7179 38.1206 33.091 38.6185 32.2314L39.031 31.5001C39.5274 30.6396 39.6621 29.6173 39.4054 28.6576C39.1488 27.6979 38.5219 26.8793 37.6623 26.3814L37.381 26.2314C36.8087 25.901 36.3339 25.4252 36.0047 24.8523C35.6754 24.2794 35.5034 23.6297 35.506 22.9689V22.0314C35.5034 21.3706 35.6754 20.7208 36.0047 20.1479C36.3339 19.575 36.8087 19.0993 37.381 18.7689L37.6623 18.6001C38.5219 18.1022 39.1488 17.2836 39.4054 16.3239C39.6621 15.3642 39.5274 14.3419 39.031 13.4814L38.6185 12.7689C38.1206 11.9093 37.3019 11.2823 36.3423 11.0257C35.3826 10.7691 34.3603 10.9037 33.4998 11.4001L33.2185 11.5501C32.6484 11.8793 32.0018 12.0525 31.3435 12.0525C30.6852 12.0525 30.0386 11.8793 29.4685 11.5501L28.6623 11.0814C28.0928 10.7526 27.6197 10.2798 27.2906 9.71044C26.9615 9.1411 26.7879 8.49523 26.7873 7.83762V7.50012C26.7873 6.50556 26.3922 5.55173 25.6889 4.84847C24.9856 4.14521 24.0318 3.75012 23.0373 3.75012Z"
          stroke="#003650" stroke-width="3.75" stroke-linecap="round" stroke-linejoin="round"/>
    <path d="M22.625 28.125C25.7316 28.125 28.25 25.6066 28.25 22.5C28.25 19.3934 25.7316 16.875 22.625 16.875C19.5184 16.875 17 19.3934 17 22.5C17 25.6066 19.5184 28.125 22.625 28.125Z"
          stroke="#003650" stroke-width="3.75" stroke-linecap="round" stroke-linejoin="round"/>
</svg>