<svg width="46" height="45" viewBox="0 0 46 45" fill="none" xmlns="http://www.w3.org/2000/svg">
    <path d="M26.2434 39.375C25.9137 39.9433 25.4406 40.415 24.8713 40.7429C24.302 41.0708 23.6566 41.2434 22.9996 41.2434C22.3426 41.2434 21.6972 41.0708 21.1279 40.7429C20.5587 40.415 20.0855 39.9433 19.7559 39.375"
          stroke="#003650" stroke-width="3.75" stroke-linecap="round" stroke-linejoin="round"/>
    <path d="M35.4316 24.375C34.5975 21.3214 34.1998 18.1651 34.2504 15" stroke="#003650" stroke-width="3.75"
          stroke-linecap="round" stroke-linejoin="round"/>
    <path d="M12.2365 11.7375C11.9108 12.7943 11.7464 13.8942 11.749 15C11.749 28.125 6.12402 31.875 6.12402 31.875H32.374"
          stroke="#003650" stroke-width="3.75" stroke-linecap="round" stroke-linejoin="round"/>
    <path d="M34.2496 15C34.2526 12.962 33.702 10.9614 32.6565 9.21202C31.611 7.46262 30.1099 6.03008 28.3136 5.06742C26.5173 4.10476 24.4932 3.64815 22.4575 3.74635C20.4219 3.84455 18.4512 4.49387 16.7559 5.62497"
          stroke="#003650" stroke-width="3.75" stroke-linecap="round" stroke-linejoin="round"/>
    <path d="M4.25 3.75012L41.75 41.2501" stroke="#003650" stroke-width="3.75" stroke-linecap="round"
          stroke-linejoin="round"/>
</svg>